# File created by Blade
# Date/Time:  Tue Jan 27 19:00:36 2015
# Frame Rate: 120.000 fps
#------------------------------------------------------
:FULLY-SPECIFIED
:DEGREES
3464
root -3.546206 31.487588 -3.062790 10.763238 -51.643978 -15.246461
Spine 4.780949 11.355418 0.498583
Head 29.119310 30.668316 7.730719
LeftShoulder -23.252004 21.815894 10.121986
LeftArm -4.421427 -47.959594 -75.039143
LeftForeArm -5.482049 -0.000000 113.559282
LeftHand -15.368776 -0.000000 31.171646
LeftHandThumb1 -26.253704 0.000000 33.147579
RightShoulder -6.754313 3.852369 -4.930466
RightArm 16.411866 -36.753983 77.771279
RightForeArm -26.816503 -0.000000 28.638966
RightHand -14.342132 -0.000000 7.535673
RightHandThumb1 -24.326973 -0.000000 -32.862282
LeftUpLeg -2.459891 18.082794 -3.056401
LeftLeg 19.197759 -0.000000 -0.000000
LeftFoot -35.824938 34.003269 -19.557117
LeftToeBase 11.922645 -0.000000 -0.000000
RightUpLeg -10.229195 -58.817682 -10.034896
RightLeg 89.631270 -0.000000 -0.000000
RightFoot -29.963579 -34.323585 17.344168
RightToeBase -1.674517 -0.000000 0.000000
3465
root -3.551638 31.481511 -3.059962 10.757428 -51.808428 -15.256036
Spine 4.803583 11.462259 0.486107
Head 29.012738 30.753680 7.712444
LeftShoulder -23.288581 21.833233 10.135640
LeftArm -4.428333 -48.081250 -75.083420
LeftForeArm -5.586203 -0.000000 113.517784
LeftHand -15.399193 -0.000000 31.184153
LeftHandThumb1 -26.253704 0.000000 33.147579
RightShoulder -6.735034 3.897216 -4.944669
RightArm 16.416758 -36.869683 77.836577
RightForeArm -26.938057 0.000000 28.589076
RightHand -14.265889 -0.000000 7.650023
RightHandThumb1 -24.326973 -0.000000 -32.862282
LeftUpLeg -2.434753 18.032160 -3.106529
LeftLeg 19.192327 -0.000000 -0.000000
LeftFoot -35.879830 34.243117 -19.558368
LeftToeBase 11.922832 -0.000000 -0.000000
RightUpLeg -10.218178 -58.795455 -9.980899
RightLeg 89.710487 -0.000000 -0.000000
RightFoot -30.132254 -34.181871 17.462451
RightToeBase -1.448150 -0.000000 0.000000
3466
root -3.556917 31.476823 -3.060442 10.781818 -51.980232 -15.286515
Spine 4.813024 11.558905 0.475267
Head 28.898749 30.871783 7.693584
LeftShoulder -23.320905 21.849761 10.153759
LeftArm -4.481029 -48.210506 -75.088838
LeftForeArm -5.666725 -0.000000 113.485474
LeftHand -15.446857 -0.000000 31.094938
LeftHandThumb1 -26.253704 0.000000 33.147579
RightShoulder -6.684619 3.936047 -4.948296
RightArm 16.434185 -37.028696 77.859780
RightForeArm -26.986770 -0.000000 28.567031
RightHand -14.244662 -0.000000 7.702248
RightHandThumb1 -24.326973 -0.000000 -32.862282
LeftUpLeg -2.428317 17.976378 -3.137901
LeftLeg 19.175914 -0.000000 -0.000000
LeftFoot -35.910166 34.613132 -19.556960
LeftToeBase 11.508020 -0.000000 -0.000000
RightUpLeg -10.258684 -58.739674 -9.859013
RightLeg 89.775694 -0.000000 -0.000000
RightFoot -30.007150 -34.159156 17.330366
RightToeBase -1.355913 -0.000000 0.000000
3467
root -3.560852 31.471673 -3.060725 10.798013 -52.133909 -15.317432
Spine 4.843706 11.617066 0.478022
Head 28.773093 31.016537 7.672707
LeftShoulder -23.378365 21.827784 10.177908
LeftArm -4.558782 -48.285417 -75.097756
LeftForeArm -5.762683 -0.000000 113.465310
LeftHand -15.431996 -0.000000 31.072750
LeftHandThumb1 -26.253704 0.000000 33.147579
RightShoulder -6.630876 3.999394 -4.961946
RightArm 16.454725 -37.235245 77.862800
RightForeArm -26.940720 -0.000000 28.562297
RightHand -14.242521 -0.000000 7.543748
RightHandThumb1 -24.326973 -0.000000 -32.862282
LeftUpLeg -2.414533 17.938693 -3.172107
LeftLeg 19.172800 -0.000000 -0.000000
LeftFoot -35.863188 34.828213 -19.440669
LeftToeBase 11.337197 -0.000000 -0.000000
RightUpLeg -10.279536 -58.651094 -9.762483
RightLeg 89.865100 -0.000000 -0.000000
RightFoot -29.871866 -34.115190 17.205396
RightToeBase -1.289877 -0.000000 0.000000
3468
root -3.564564 31.466755 -3.060822 10.815477 -52.265717 -15.350832
Spine 4.878435 11.647866 0.493595
Head 28.628906 31.169492 7.633240
LeftShoulder -23.415655 21.821504 10.193164
LeftArm -4.648617 -48.364034 -75.099198
LeftForeArm -5.890608 -0.000000 113.453705
LeftHand -15.419463 -0.000000 31.043180
LeftHandThumb1 -26.253704 0.000000 33.147579
RightShoulder -6.592510 4.017124 -4.977543
RightArm 16.563882 -37.529328 77.762272
RightForeArm -26.830083 -0.000000 28.574072
RightHand -14.234095 -0.000000 7.472748
RightHandThumb1 -24.326973 -0.000000 -32.862282
LeftUpLeg -2.404140 17.850737 -3.201175
LeftLeg 19.171042 -0.000000 -0.000000
LeftFoot -35.872871 35.080206 -19.396687
LeftToeBase 11.330677 -0.000000 -0.000000
RightUpLeg -10.283761 -58.553363 -9.675134
RightLeg 89.935785 -0.000000 -0.000000
RightFoot -29.795536 -34.049567 17.125817
RightToeBase -1.600195 -0.000000 0.000000
3469
root -3.567458 31.462296 -3.061138 10.830988 -52.405034 -15.382289
Spine 4.912458 11.677425 0.502963
Head 28.501331 31.344024 7.619778
LeftShoulder -23.439311 21.817519 10.218793
LeftArm -4.765938 -48.429717 -75.090208
LeftForeArm -6.003994 -0.000000 113.473578
LeftHand -15.452836 -0.000000 31.076467
LeftHandThumb1 -26.253704 0.000000 33.147579
RightShoulder -6.551965 4.025482 -4.980371
RightArm 16.695601 -37.827482 77.624630
RightForeArm -26.712819 -0.000000 28.600772
RightHand -14.272090 -0.000000 7.471580
RightHandThumb1 -24.326973 -0.000000 -32.862282
LeftUpLeg -2.394651 17.750732 -3.229845
LeftLeg 19.173743 -0.000000 -0.000000
LeftFoot -35.956936 35.307874 -19.474251
LeftToeBase 11.349956 -0.000000 -0.000000
RightUpLeg -10.284036 -58.424748 -9.592306
RightLeg 89.998456 -0.000000 -0.000000
RightFoot -29.760731 -33.955801 17.095916
RightToeBase -1.431872 -0.000000 0.000000
3470
root -3.567068 31.458188 -3.068156 10.891893 -52.530824 -15.435891
Spine 4.941368 11.697586 0.514286
Head 28.332951 31.539096 7.610393
LeftShoulder -23.469733 21.815242 10.248483
LeftArm -4.848612 -48.460141 -75.110430
LeftForeArm -6.131148 -0.000000 113.503145
LeftHand -15.443818 0.000000 31.025821
LeftHandThumb1 -26.253704 0.000000 33.147579
RightShoulder -6.518121 4.033613 -4.980661
RightArm 16.840770 -38.090518 77.480823
RightForeArm -26.581775 -0.000000 28.644646
RightHand -14.254001 0.000000 7.479469
RightHandThumb1 -24.326973 -0.000000 -32.862282
LeftUpLeg -2.448050 17.629166 -3.252522
LeftLeg 19.223900 -0.000000 -0.000000
LeftFoot -36.005846 35.540047 -19.492288
LeftToeBase 11.302321 -0.000000 -0.000000
RightUpLeg -10.365494 -58.265427 -9.412384
RightLeg 90.046712 -0.000000 -0.000000
RightFoot -29.767241 -33.863042 17.098537
RightToeBase -1.458955 -0.000000 0.000000
3471
root -3.565455 31.454576 -3.072551 10.944106 -52.713913 -15.462902
Spine 4.950060 11.764384 0.491368
Head 28.179342 31.739070 7.628330
LeftShoulder -23.504981 21.843283 10.274463
LeftArm -4.898330 -48.465420 -75.158993
LeftForeArm -6.248035 -0.000000 113.540450
LeftHand -15.424286 -0.000000 30.970077
LeftHandThumb1 -26.253704 0.000000 33.147579
RightShoulder -6.503482 4.048333 -4.969372
RightArm 16.982632 -38.324725 77.358584
RightForeArm -26.525166 0.000000 28.652838
RightHand -14.248367 -0.000000 7.454698
RightHandThumb1 -24.326973 -0.000000 -32.862282
LeftUpLeg -2.496596 17.576218 -3.303577
LeftLeg 19.252995 -0.000000 -0.000000
LeftFoot -36.075196 35.714514 -19.575046
LeftToeBase 11.264940 -0.000000 -0.000000
RightUpLeg -10.492410 -58.005515 -9.242075
RightLeg 90.112320 -0.000000 -0.000000
RightFoot -29.762982 -33.735712 17.090610
RightToeBase -1.525826 -0.000000 0.000000
3472
root -3.564808 31.449874 -3.071244 10.931751 -52.924374 -15.464039
Spine 5.002492 11.842955 0.462874
Head 28.012674 31.948144 7.642472
LeftShoulder -23.513519 21.846789 10.310773
LeftArm -5.051353 -48.452890 -75.132440
LeftForeArm -6.325145 -0.000000 113.606620
LeftHand -15.405888 -0.000000 30.995559
LeftHandThumb1 -26.253704 0.000000 33.147579
RightShoulder -6.481423 4.073434 -4.973864
RightArm 17.092587 -38.527991 77.273249
RightForeArm -26.539222 -0.000000 28.649580
RightHand -14.241470 0.000000 7.451548
RightHandThumb1 -24.326973 -0.000000 -32.862282
LeftUpLeg -2.464618 17.585031 -3.362704
LeftLeg 19.230539 -0.000000 -0.000000
LeftFoot -36.110793 35.876341 -19.617479
LeftToeBase 11.224250 -0.000000 -0.000000
RightUpLeg -10.529618 -57.718943 -9.190234
RightLeg 90.163260 -0.000000 -0.000000
RightFoot -29.758100 -33.655070 17.120920
RightToeBase -1.429641 -0.000000 0.000000
3473
root -3.560199 31.447316 -3.072782 10.932601 -53.080759 -15.455194
Spine 5.048433 11.856705 0.436377
Head 27.824965 32.180727 7.659279
LeftShoulder -23.534114 21.865913 10.311088
LeftArm -5.160957 -48.422703 -75.118032
LeftForeArm -6.373469 -0.000000 113.692449
LeftHand -15.440659 -0.000000 31.044751
LeftHandThumb1 -26.253704 0.000000 33.147579
RightShoulder -6.466274 4.095081 -4.960410
RightArm 17.210687 -38.681929 77.178224
RightForeArm -26.598060 -0.000000 28.653255
RightHand -14.203599 -0.000000 7.440408
RightHandThumb1 -24.326973 -0.000000 -32.862282
LeftUpLeg -2.476307 17.565649 -3.427192
LeftLeg 19.213338 -0.000000 -0.000000
LeftFoot -36.095603 36.093291 -19.586419
LeftToeBase 11.185657 -0.000000 -0.000000
RightUpLeg -10.597389 -57.467106 -9.110012
RightLeg 90.178946 -0.000000 -0.000000
RightFoot -29.679562 -33.665878 17.098665
RightToeBase -1.306390 -0.000000 0.000000
